<?xml version="1.0" standalone="no"?>
<!DOCTYPE svg PUBLIC "-//W3C//DTD SVG 20010904//EN"
 "http://www.w3.org/TR/2001/REC-SVG-20010904/DTD/svg10.dtd">
<svg version="1.0" xmlns="http://www.w3.org/2000/svg"
 width="700.000000pt" height="700.000000pt" viewBox="0 0 700.000000 700.000000"
 preserveAspectRatio="xMidYMid meet">
<metadata>
Created by potrace 1.14, written by Peter Selinger 2001-2017
</metadata>
<g transform="translate(0.000000,700.000000) scale(0.100000,-0.100000)"
fill="#000000" stroke="none">
<path d="M3288 6845 c-1 -1 -59 -6 -128 -9 -69 -3 -136 -8 -150 -11 -14 -2
-50 -6 -80 -9 -30 -4 -66 -8 -80 -11 -13 -3 -40 -7 -60 -10 -224 -33 -534
-125 -769 -227 -853 -371 -1512 -1073 -1824 -1943 -67 -186 -127 -419 -153
-595 -3 -19 -9 -62 -14 -95 -34 -224 -35 -641 -1 -880 18 -123 22 -148 43
-245 163 -772 585 -1451 1207 -1944 341 -270 778 -489 1191 -597 63 -17 126
-33 140 -35 14 -3 32 -7 40 -9 8 -2 29 -7 45 -10 17 -2 41 -7 55 -10 75 -16
202 -31 334 -41 l83 -6 -1 223 c-1 189 -3 222 -16 224 -8 1 -51 5 -95 9 -238
20 -519 87 -765 183 -281 110 -600 299 -804 476 -27 23 -58 50 -70 60 -65 57
-191 185 -281 288 -229 259 -448 659 -558 1019 -94 308 -127 536 -128 870 0
91 2 183 5 205 2 22 7 67 11 100 6 61 8 75 20 155 25 162 80 366 148 551 203
548 617 1068 1102 1384 158 103 180 116 319 185 275 136 571 230 867 275 213
33 600 38 777 10 303 -47 484 -94 705 -180 677 -267 1235 -782 1546 -1428 128
-265 199 -483 256 -792 46 -248 51 -645 10 -885 -4 -22 -8 -50 -9 -63 -5 -38
-27 -138 -52 -236 -13 -51 -24 -98 -24 -105 0 -8 61 -11 226 -11 l227 0 9 24
c9 25 53 238 62 301 5 40 14 110 26 225 9 86 6 531 -4 605 -3 25 -8 63 -11 85
-3 22 -7 54 -10 70 -3 17 -7 41 -9 55 -13 79 -29 162 -43 215 -8 33 -17 69
-19 79 -8 41 -56 195 -90 291 -120 337 -304 668 -525 946 -46 57 -88 109 -93
115 -6 6 -51 54 -100 107 -164 178 -456 421 -628 522 -10 5 -55 33 -100 60
-279 170 -680 328 -993 391 -67 13 -124 24 -155 28 -19 3 -46 8 -60 11 -14 3
-54 8 -90 11 -36 3 -71 8 -79 10 -8 3 -91 7 -185 10 -94 3 -176 7 -183 9 -6 2
-13 2 -15 0z"/>
<path d="M4091 5828 c-23 -73 -78 -243 -121 -378 -43 -135 -99 -310 -125 -390
-26 -80 -48 -149 -49 -155 -2 -5 -6 -17 -9 -25 -3 -8 -10 -29 -15 -47 l-11
-32 57 -21 c173 -65 334 -167 475 -301 l92 -86 60 52 c33 28 114 98 180 156
67 57 145 124 174 149 30 25 64 54 75 65 12 11 51 45 86 75 70 59 116 99 134
115 6 6 55 48 108 94 78 67 96 87 88 100 -13 24 -145 156 -235 237 -164 146
-332 260 -537 365 -100 50 -292 132 -364 153 -18 6 -24 -6 -63 -126z"/>
<path d="M5340 4690 c-118 -71 -228 -137 -245 -148 -16 -11 -152 -92 -302
-181 l-272 -162 38 -77 c22 -42 46 -94 55 -116 12 -30 20 -37 33 -31 10 3 263
97 563 207 300 111 549 204 553 208 17 14 -172 419 -199 426 -5 1 -106 -55
-224 -126z"/>
<path d="M3180 4570 c-19 -4 -49 -10 -66 -14 -177 -35 -372 -138 -515 -273
-97 -92 -161 -180 -224 -308 -83 -170 -110 -285 -110 -475 0 -128 6 -186 30
-275 123 -467 534 -795 1015 -810 69 -2 145 0 170 5 25 4 59 10 75 13 233 38
496 200 649 400 90 118 180 309 201 425 2 15 9 50 14 77 10 52 8 301 -3 345
-3 14 -9 38 -12 55 -10 55 -54 175 -90 248 -157 312 -457 531 -803 586 -66 11
-281 11 -331 1z m257 -264 c86 -7 217 -47 293 -89 339 -185 500 -557 405 -934
-21 -82 -95 -228 -152 -298 -105 -129 -276 -240 -433 -280 -143 -37 -332 -29
-473 20 -160 55 -327 185 -415 323 -158 246 -175 561 -45 817 71 139 146 222
286 314 95 64 232 116 342 129 61 8 68 8 192 -2z"/>
<path d="M3252 3920 c-99 -21 -208 -96 -264 -182 -56 -86 -72 -141 -72 -243 1
-106 24 -176 84 -256 258 -343 798 -144 775 286 -9 166 -120 317 -278 376 -60
23 -182 32 -245 19z"/>
<path d="M1500 2816 c-300 -111 -553 -205 -562 -208 -16 -7 -16 -11 -3 -48 28
-79 150 -333 180 -373 12 -16 53 6 526 289 283 169 517 309 521 313 3 3 -16
51 -43 106 -27 55 -49 105 -49 112 0 7 -6 13 -12 12 -7 0 -258 -91 -558 -203z"/>
<path d="M2155 2469 c-82 -72 -161 -141 -175 -153 -129 -110 -323 -277 -356
-305 -22 -20 -69 -61 -104 -91 -35 -30 -79 -69 -99 -86 l-35 -31 120 -120
c135 -135 159 -157 276 -246 211 -162 460 -296 711 -383 37 -12 67 -21 67 -18
0 6 269 850 336 1053 34 104 34 105 -38 131 -108 39 -289 139 -335 186 -8 8
-18 14 -22 14 -4 0 -49 41 -100 90 -51 50 -93 90 -94 90 -1 0 -69 -59 -152
-131z"/>
<path d="M3618 2094 c-5 -4 -8 -407 -8 -895 0 -837 1 -888 18 -893 36 -10 597
1 647 13 159 39 261 133 319 296 15 41 27 123 33 225 14 210 5 802 -11 851 -3
8 -7 28 -9 44 -13 85 -76 200 -140 254 -57 48 -105 72 -202 99 -32 8 -639 15
-647 6z m545 -263 c53 -18 101 -71 120 -133 24 -76 30 -177 30 -483 1 -431
-12 -527 -82 -596 -47 -47 -97 -61 -213 -57 l-93 3 -1 630 c0 347 3 635 7 640
10 14 187 11 232 -4z"/>
<path d="M4755 2053 c4 -27 22 -113 41 -193 53 -228 54 -234 58 -255 2 -11 18
-81 35 -156 18 -75 33 -145 36 -155 7 -33 55 -246 70 -309 31 -134 87 -382 92
-405 2 -14 9 -43 15 -65 12 -46 11 -41 28 -123 7 -35 19 -69 26 -77 17 -17
250 -17 264 0 7 9 50 181 66 265 3 14 9 39 14 55 4 17 12 48 16 70 4 22 8 45
10 50 6 24 145 632 148 650 2 11 25 109 50 217 25 108 47 207 50 220 2 13 16
72 30 131 15 60 24 113 21 118 -7 11 -275 12 -291 1 -11 -7 -17 -27 -30 -102
-3 -19 -12 -71 -20 -115 -8 -44 -19 -104 -24 -133 -5 -30 -11 -61 -14 -70 -3
-10 -7 -35 -11 -57 -3 -22 -14 -87 -25 -145 -11 -58 -22 -117 -24 -133 -3 -15
-7 -35 -10 -45 -3 -9 -7 -35 -11 -57 -4 -32 -29 -168 -39 -220 -1 -5 -8 -43
-16 -83 -7 -41 -17 -68 -20 -60 -6 11 -25 105 -56 273 -11 62 -46 247 -54 285
-6 25 -12 56 -14 70 -3 14 -14 75 -26 135 -40 212 -59 311 -70 370 -19 105 -2
95 -172 95 l-150 0 7 -47z"/>
<path d="M5983 2088 c-12 -15 -12 -1756 -1 -1774 13 -20 598 -11 671 10 178
50 288 171 321 356 28 152 29 984 2 1028 -2 4 -7 25 -10 47 -10 62 -64 163
-115 215 -55 55 -133 95 -222 114 -89 19 -632 22 -646 4z m552 -262 c54 -23
80 -49 105 -108 29 -68 35 -159 35 -538 0 -401 -7 -462 -59 -540 -38 -58 -83
-74 -213 -78 l-113 -4 0 640 c0 449 3 641 11 644 31 10 198 -1 234 -16z"/>
</g>
</svg>
